# xmcd
#
# Track frame offsets:
# 150
# 18331
# 38879
# 61490
# 84065
# 103615
# 125024
# 144780
# 159898
# 178127
# 197487
# 230811
# 250491
# 266758
# 285356
# 303668
# 331399
#
# Disc length: 4568 seconds
#
# Revision: 1
# Processed by: cddbd v1.5.2PL0 Copyright (c) Steve Scherf et al.
# Submitted via: CedeCatalogueitor 2.6.0.6 http://personales.ya.com/cdcatalogueitor
#
DISCID=e911d611
DTITLE=Kenny G - Greatest Hits
DYEAR=1900
DGENRE=
TTITLE0=Song Bird
TTITLE1=Silhouetle
TTITLE2=Forever In Love
TTITLE3=Everytime I Close My Eyes
TTITLE4=Sentimental
TTITLE5=The Moment
TTITLE6=How Could An Angel Break My Heart
TTITLE7=Loving You
TTITLE8=You Send Me
TTITLE9=Going Home
TTITLE10=Havana
TTITLE11=By The Time This Night Is Over
TTITLE12=Baby G
TTITLE13=Don't Make Me Wait For Love
TTITLE14=Theme From Dying Young
TTITLE15=All The Way - One For My Baby
TTITLE16=Innocence
EXTD=
EXTT0=
EXTT1=
EXTT2=
EXTT3=
EXTT4=
EXTT5=
EXTT6=
EXTT7=
EXTT8=
EXTT9=
EXTT10=
EXTT11=
EXTT12=
EXTT13=
EXTT14=
EXTT15=
EXTT16=
PLAYORDER=
